<svg width="11" height="12" viewBox="0 0 11 12" fill="none" xmlns="http://www.w3.org/2000/svg">
<g clip-path="url(#clip0_1_304)">
<path d="M5.41356 5.9528C5.43309 5.88118 5.42007 5.7998 5.37449 5.70866C5.33543 5.63704 5.28009 5.56217 5.20848 5.48405L1.21434 1.49967C1.11017 1.39551 0.986473 1.34342 0.843243 1.34342C0.700014 1.34342 0.577944 1.39551 0.477032 1.49967C0.376121 1.60384 0.325665 1.72754 0.325665 1.87077C0.325665 2.014 0.374493 2.1377 0.47215 2.24186L4.28074 5.94303L0.47215 9.65397C0.381004 9.73861 0.32892 9.84277 0.3159 9.96647C0.302879 10.0902 0.330548 10.2057 0.398907 10.3132C0.467267 10.4206 0.563295 10.4906 0.686993 10.5231C0.810691 10.5557 0.927879 10.5492 1.03856 10.5036C1.10366 10.4775 1.16225 10.4385 1.21434 10.3864L5.20848 6.40202C5.28009 6.32389 5.33218 6.25553 5.36473 6.19694C5.4103 6.10579 5.42658 6.02441 5.41356 5.9528ZM10.1011 5.48405L6.10692 1.49967C6.00275 1.39551 5.87905 1.34342 5.73582 1.34342C5.59259 1.34342 5.47052 1.39551 5.36961 1.49967C5.2687 1.60384 5.21824 1.72754 5.21824 1.87077C5.21824 2.014 5.26707 2.1377 5.36473 2.24186L9.17332 5.9528L5.36473 9.64421C5.27358 9.73535 5.2215 9.84277 5.20848 9.96647C5.19546 10.0902 5.22475 10.2041 5.29637 10.3083C5.36798 10.4124 5.46401 10.4824 5.58445 10.5182C5.7049 10.554 5.82046 10.5492 5.93113 10.5036C5.99624 10.4775 6.05158 10.4385 6.09715 10.3864L10.1011 6.41178C10.1727 6.32064 10.2248 6.24902 10.2573 6.19694C10.3029 6.1123 10.3192 6.03092 10.3061 5.9528C10.3387 5.81608 10.2703 5.65983 10.1011 5.48405Z" fill="#3E5765"/>
</g>
<defs>
<clipPath id="clip0_1_304">
<rect width="10" height="10.5" fill="white" transform="matrix(1 0 0 -1 0.312775 11.1931)"/>
</clipPath>
</defs>
</svg>
